<svg width="24" height="24" viewBox="0 0 24 24" fill="none" xmlns="http://www.w3.org/2000/svg">
<path d="M18.0082 0C15.8799 0 13.588 0.57675 12.0055 2.16281C10.4229 0.57675 8.13097 0 6.00273 0C4.42019 0 2.73943 0.317212 1.33151 1.13908C0.534789 1.6149 0 2.63863 0 3.80655V20.0709C0 21.9453 1.33151 23.3295 2.70668 22.8681C3.77626 22.5077 4.91132 22.3491 6.00273 22.3491C7.70532 22.3491 9.51705 22.7239 10.9795 23.6756C11.6344 24.1081 12.3765 24.1081 13.0205 23.6756C14.4829 22.7095 16.2947 22.3491 17.9973 22.3491C19.0887 22.3491 20.2237 22.5077 21.2933 22.8681C22.6685 23.3439 24 21.9597 24 20.0709V3.80655C24 2.63863 23.4652 1.6149 22.6685 1.13908C21.2715 0.317212 19.5907 0 18.0082 0ZM21.8281 18.3551C21.8281 19.2634 21.1951 19.9267 20.5184 19.7681C19.6999 19.5662 18.8486 19.4797 18.0082 19.4797C16.1528 19.4797 13.4789 20.4169 12.0055 21.6425V5.04656C13.4789 3.82097 16.1528 2.88375 18.0082 2.88375C19.0123 2.88375 20.0055 3.01352 20.955 3.28747C21.457 3.43166 21.8281 4.02283 21.8281 4.70051V18.3551Z" fill="url(#paint0_linear_16_48)"/>
<path d="M14.1664 9.38567C13.8172 9.38567 13.5007 9.09739 13.3915 8.63614C13.2496 8.074 13.4898 7.4542 13.9154 7.28123C15.5962 6.56053 17.7681 6.32991 19.7653 6.6326C20.2128 6.70467 20.5402 7.23799 20.4857 7.82896C20.4311 8.41993 20.0273 8.85235 19.5798 8.78028C17.8117 8.50642 15.8799 8.72262 14.4175 9.34242C14.3301 9.35684 14.2428 9.38567 14.1664 9.38567Z" fill="url(#paint1_linear_16_48)"/>
<path d="M14.1664 13.2211C13.8172 13.2211 13.5007 12.9328 13.3915 12.4715C13.2496 11.9094 13.4898 11.2896 13.9154 11.1166C15.5853 10.3959 17.7681 10.1653 19.7653 10.468C20.2128 10.5401 20.5402 11.0734 20.4857 11.6643C20.4311 12.2553 20.0273 12.6877 19.5798 12.6157C17.8117 12.3418 15.8799 12.558 14.4175 13.1778C14.3301 13.2066 14.2428 13.2211 14.1664 13.2211Z" fill="url(#paint2_linear_16_48)"/>
<path d="M14.1664 17.0564C13.8172 17.0564 13.5007 16.7682 13.3915 16.3069C13.2496 15.7448 13.4898 15.125 13.9154 14.952C15.5853 14.2313 17.7681 14.0007 19.7653 14.3034C20.2128 14.3754 20.5402 14.9088 20.4857 15.4997C20.4311 16.0907 20.0273 16.5087 19.5798 16.4511C17.8117 16.1772 15.8799 16.3934 14.4175 17.0132C14.3301 17.042 14.2428 17.0564 14.1664 17.0564Z" fill="url(#paint3_linear_16_48)"/>
<defs>
<linearGradient id="paint0_linear_16_48" x1="12" y1="0" x2="12" y2="24" gradientUnits="userSpaceOnUse">
<stop stop-color="#DBA0EF"/>
<stop offset="1" stop-color="#AC35D6"/>
</linearGradient>
<linearGradient id="paint1_linear_16_48" x1="16.9211" y1="6.50275" x2="16.9211" y2="9.38567" gradientUnits="userSpaceOnUse">
<stop stop-color="#DBA0EF"/>
<stop offset="1" stop-color="#AC35D6"/>
</linearGradient>
<linearGradient id="paint2_linear_16_48" x1="16.9211" y1="10.3381" x2="16.9211" y2="13.2211" gradientUnits="userSpaceOnUse">
<stop stop-color="#DBA0EF"/>
<stop offset="1" stop-color="#AC35D6"/>
</linearGradient>
<linearGradient id="paint3_linear_16_48" x1="16.9211" y1="14.1735" x2="16.9211" y2="17.0564" gradientUnits="userSpaceOnUse">
<stop stop-color="#DBA0EF"/>
<stop offset="1" stop-color="#AC35D6"/>
</linearGradient>
</defs>
</svg>
