<svg width="24" height="24" viewBox="0 0 24 24" fill="none" xmlns="http://www.w3.org/2000/svg">
<path d="M12.9504 16.404C13.106 15.972 13.006 15.48 12.6947 15.144L10.3714 12.672L10.4048 12.636C12.339 10.308 13.7174 7.632 14.5289 4.8H16.6855C17.2857 4.8 17.786 4.26 17.786 3.612V3.588C17.786 2.94 17.2857 2.4 16.6855 2.4H10.0046V1.2C10.0046 0.54 9.50438 0 8.89298 0C8.28159 0 7.78136 0.54 7.78136 1.2V2.4H1.10051C0.50023 2.4 0 2.94 0 3.588C0 4.248 0.50023 4.776 1.10051 4.776H12.4168C11.672 7.104 10.4937 9.3 8.89298 11.22C7.99257 10.152 7.23667 8.988 6.60304 7.764C6.42518 7.416 6.10281 7.2 5.73597 7.2C4.96895 7.2 4.47984 8.1 4.85779 8.82C5.55811 10.176 6.41406 11.472 7.41453 12.672L2.55673 17.844C2.11208 18.312 2.11208 19.08 2.55673 19.548C2.99027 20.016 3.69059 20.016 4.13524 19.548L8.89298 14.4L11.1385 16.824C11.7054 17.436 12.6725 17.208 12.9504 16.404V16.404ZM18.3418 9.6C17.6748 9.6 17.0745 10.044 16.8411 10.728L12.7614 22.488C12.4946 23.22 13.006 24 13.7285 24C14.1621 24 14.5511 23.712 14.7068 23.268L15.6961 20.4H20.9763L21.9768 23.268C22.1324 23.7 22.5215 24 22.955 24C23.6776 24 24.1889 23.22 23.9332 22.488L19.8536 10.728C19.609 10.044 19.0088 9.6 18.3418 9.6V9.6ZM16.5409 18L18.3418 12.804L20.1426 18H16.5409V18Z" fill="url(#paint0_linear_16_43)"/>
<defs>
<linearGradient id="paint0_linear_16_43" x1="12" y1="0" x2="12" y2="24" gradientUnits="userSpaceOnUse">
<stop stop-color="#DBA0EF"/>
<stop offset="1" stop-color="#AC35D6"/>
</linearGradient>
</defs>
</svg>
