<svg width="104" height="38" viewBox="0 0 104 38" fill="none" xmlns="http://www.w3.org/2000/svg">
<path d="M7.992 3.73612V30.7601H20.952L20.136 37.0001H0.119995V3.73612H7.992Z" fill="#0E0E0E"/>
<path d="M34.4066 10.6961C38.3106 10.6961 41.3666 11.8961 43.5746 14.2961C45.7826 16.6641 46.8866 19.9921 46.8866 24.2801C46.8866 27.0001 46.3746 29.3841 45.3506 31.4321C44.3586 33.4481 42.9186 35.0161 41.0306 36.1361C39.1746 37.2561 36.9666 37.8161 34.4066 37.8161C30.5346 37.8161 27.4786 36.6321 25.2386 34.2641C23.0306 31.8641 21.9266 28.5201 21.9266 24.2321C21.9266 21.5121 22.4226 19.1441 23.4146 17.1281C24.4386 15.0801 25.8786 13.4961 27.7346 12.3761C29.6226 11.2561 31.8466 10.6961 34.4066 10.6961ZM34.4066 16.2641C32.8706 16.2641 31.7186 16.9201 30.9506 18.2321C30.1826 19.5121 29.7986 21.5121 29.7986 24.2321C29.7986 27.0161 30.1666 29.0481 30.9026 30.3281C31.6706 31.6081 32.8386 32.2481 34.4066 32.2481C35.9426 32.2481 37.0946 31.6081 37.8626 30.3281C38.6306 29.0161 39.0146 27.0001 39.0146 24.2801C39.0146 21.4961 38.6306 19.4641 37.8626 18.1841C37.1266 16.9041 35.9746 16.2641 34.4066 16.2641Z" fill="#0E0E0E"/>
<path d="M65.8459 10.6961C68.8859 10.6961 71.2219 11.8961 72.8539 14.2961C74.4859 16.6641 75.3019 19.9921 75.3019 24.2801C75.3019 26.9041 74.8859 29.2401 74.0539 31.2881C73.2539 33.3361 72.0859 34.9361 70.5499 36.0881C69.0459 37.2401 67.2539 37.8161 65.1739 37.8161C63.7979 37.8161 62.5339 37.5281 61.3819 36.9521C60.2619 36.3761 59.3019 35.5761 58.5019 34.5521L58.1179 37.0001H51.3979V1.38412L58.9819 0.568115V14.1041C59.7499 13.0481 60.7259 12.2161 61.9099 11.6081C63.1259 11.0001 64.4379 10.6961 65.8459 10.6961ZM62.9659 32.2961C65.9419 32.2961 67.4299 29.6241 67.4299 24.2801C67.4299 21.2401 67.0779 19.1441 66.3739 17.9921C65.6699 16.8401 64.6459 16.2641 63.3019 16.2641C61.6059 16.2641 60.1659 17.2561 58.9819 19.2401V29.8481C59.4619 30.6161 60.0379 31.2241 60.7099 31.6721C61.4139 32.0881 62.1659 32.2961 62.9659 32.2961Z" fill="#0E0E0E"/>
<path d="M91.0785 10.6961C94.9825 10.6961 98.0385 11.8961 100.246 14.2961C102.454 16.6641 103.558 19.9921 103.558 24.2801C103.558 27.0001 103.046 29.3841 102.022 31.4321C101.03 33.4481 99.5905 35.0161 97.7025 36.1361C95.8465 37.2561 93.6385 37.8161 91.0785 37.8161C87.2065 37.8161 84.1505 36.6321 81.9105 34.2641C79.7025 31.8641 78.5985 28.5201 78.5985 24.2321C78.5985 21.5121 79.0945 19.1441 80.0865 17.1281C81.1105 15.0801 82.5505 13.4961 84.4065 12.3761C86.2945 11.2561 88.5185 10.6961 91.0785 10.6961ZM91.0785 16.2641C89.5425 16.2641 88.3905 16.9201 87.6225 18.2321C86.8545 19.5121 86.4705 21.5121 86.4705 24.2321C86.4705 27.0161 86.8385 29.0481 87.5745 30.3281C88.3425 31.6081 89.5105 32.2481 91.0785 32.2481C92.6145 32.2481 93.7665 31.6081 94.5345 30.3281C95.3025 29.0161 95.6865 27.0001 95.6865 24.2801C95.6865 21.4961 95.3025 19.4641 94.5345 18.1841C93.7985 16.9041 92.6465 16.2641 91.0785 16.2641Z" fill="#0E0E0E"/>
</svg>
